<?xml version="1.0" standalone="no"?>
<!DOCTYPE svg PUBLIC "-//W3C//DTD SVG 20010904//EN"
 "http://www.w3.org/TR/2001/REC-SVG-20010904/DTD/svg10.dtd">
<svg version="1.0" xmlns="http://www.w3.org/2000/svg"
 width="1024.000000pt" height="1024.000000pt" viewBox="0 0 1024.000000 1024.000000"
 preserveAspectRatio="xMidYMid meet">
<metadata>
Created by potrace 1.14, written by Peter Selinger 2001-2017
</metadata>
<g transform="translate(0.000000,1024.000000) scale(0.100000,-0.100000)"
fill="#000000" stroke="none">
<path d="M9980 9505 l0 -145 -145 0 -145 0 0 -145 0 -145 -150 0 -150 0 0
-150 0 -150 -440 0 -440 0 0 -145 0 -145 -145 0 -145 0 0 -295 0 -295 -145 0
-145 0 0 -145 0 -145 -150 0 -150 0 0 -150 0 -150 -880 0 -880 0 0 150 0 150
-145 0 -145 0 0 -150 0 -150 145 0 145 0 0 -145 0 -145 -295 0 -295 0 0 -145
0 -145 -440 0 -440 0 0 -150 0 -150 -145 0 -145 0 0 440 0 440 -145 0 -145 0
0 -290 0 -290 -295 0 -295 0 0 -150 0 -150 -145 0 -145 0 0 -290 0 -290 -445
0 -445 0 0 -150 0 -150 -145 0 -145 0 0 -145 0 -145 -145 0 -145 0 0 -145 0
-145 -150 0 -150 0 0 -295 0 -295 -145 0 -145 0 0 -145 0 -145 -145 0 -145 0
0 -1325 0 -1325 145 0 145 0 0 -145 0 -145 1615 0 1615 0 0 145 0 145 145 0
145 0 0 150 0 150 150 0 150 0 0 145 0 145 145 0 145 0 0 145 0 145 295 0 295
0 0 445 0 445 145 0 145 0 0 145 0 145 295 0 295 0 0 145 0 145 145 0 145 0 0
150 0 150 145 0 145 0 0 145 0 145 295 0 295 0 0 295 0 295 150 0 150 0 0 145
0 145 145 0 145 0 0 295 0 295 295 0 295 0 0 880 0 880 290 0 290 0 0 440 0
440 150 0 150 0 0 145 0 145 145 0 145 0 0 295 0 295 130 0 130 0 0 145 0 145
-130 0 -130 0 0 -145z m-5870 -3375 l0 -290 -145 0 -145 0 0 290 0 290 145 0
145 0 0 -290z"/>
</g>
</svg>
